<?xml version="1.0" encoding="utf-8"?>
<!DOCTYPE svg PUBLIC "-//W3C//DTD SVG 20010904//EN" "http://www.w3.org/TR/2001/REC-SVG-20010904/DTD/svg10.dtd">
<svg version="1.0" xmlns="http://www.w3.org/2000/svg" width="512px" height="512px" viewBox="0 0 512 512" preserveAspectRatio="xMidYMid meet">
 <g fill="#FAFAFA">
  <path d="M118.1 467.4 c-14.6 -3.9 -25.9 -14.6 -30.3 -28.7 -1.7 -5.6 -1.8 -12.7 -1.8 -129.2 0 -118.2 0.1 -123.6 1.9 -129.4 3.8 -12.2 11.1 -20.6 23.1 -26.4 6.5 -3.2 6.6 -3.2 25 -3.5 17.9 -0.3 18.6 -0.3 23 2.1 12.3 6.5 14.9 24.2 4.8 33.3 -5.1 4.8 -8.7 5.7 -22.5 6.2 l-13.3 0.5 0 117.3 0 117.4 128 0 128 0 0 -117.4 0 -117.3 -13.2 -0.5 c-13.9 -0.5 -17.5 -1.4 -22.6 -6.2 -7.1 -6.4 -8.3 -18.7 -2.7 -26.8 1.7 -2.3 5 -5.2 7.5 -6.5 4.4 -2.4 5.1 -2.4 23 -2.1 18.4 0.3 18.5 0.3 25 3.5 12 5.8 19.3 14.2 23.1 26.4 1.8 5.8 1.9 11.2 1.9 129.4 0 116.5 -0.1 123.6 -1.8 129.2 -4.5 14.3 -15.8 24.9 -30.7 28.8 -8.7 2.2 -267 2.2 -275.4 -0.1z"/>
  <path d="M249.6 382.6 c-5.7 -2.1 -8.8 -4.7 -11.6 -9.7 l-2.5 -4.4 -0.3 -120.1 -0.2 -120.2 -17.3 -0.3 c-15.1 -0.4 -17.6 -0.7 -20.7 -2.5 -4.2 -2.4 -7.7 -7.4 -8.6 -12.1 -1.4 -7.3 0.7 -10 30.8 -40 23.9 -23.7 29 -28.3 32.6 -29.4 8.6 -2.5 9.7 -1.8 41 29.4 30.1 30 32.2 32.7 30.8 40 -0.9 4.7 -4.4 9.7 -8.6 12.1 -3.1 1.8 -5.6 2.1 -20.7 2.5 l-17.3 0.3 0 118.2 c0 76 -0.4 119.4 -1 121.7 -3.2 11.5 -15.8 18.4 -26.4 14.5z"/>
 </g>
</svg>