<?xml version="1.0" encoding="utf-8"?>
<!DOCTYPE svg PUBLIC "-//W3C//DTD SVG 20010904//EN" "http://www.w3.org/TR/2001/REC-SVG-20010904/DTD/svg10.dtd">
<svg version="1.0" xmlns="http://www.w3.org/2000/svg" width="90px" height="90px" viewBox="0 0 90 90" preserveAspectRatio="xMidYMid meet">
 <g fill="#FAFAFA">
  <path d="M23.3 74.3 l-1.3 -0.5 0 -1.9 0 -1.9 2.5 -0.6 2.5 -0.6 0 -23.9 0 -23.9 -7.4 0 -7.4 0 -0.6 2.5 -0.6 2.5 -1.9 0 -1.9 0 -0.6 -1.6 c-0.3 -0.9 -0.6 -2.6 -0.6 -3.9 l0 -2.4 1.6 -1.5 1.5 -1.6 23.9 0 23.9 0 1.5 1.6 1.6 1.5 0 2.4 c0 1.3 -0.3 3 -0.6 3.9 l-0.6 1.6 -1.9 0 -1.9 0 -0.6 -2.5 -0.6 -2.5 -7.4 0 -7.4 0 0 23.9 0 23.9 2.5 0.6 2.5 0.6 0 1.9 0 1.9 -1.6 0.6 c-1.9 0.7 -17.3 0.7 -19.1 -0.1z"/>
  <path d="M62.3 74.3 l-1.3 -0.5 0 -1.9 0 -1.9 1 0 1 0 0 -14 0 -14 -3.5 0 -3.5 0 0 1 0 1 -1.9 0 -1.9 0 -0.6 -1.6 c-0.9 -2.4 -0.8 -3.1 1 -4.8 l1.5 -1.6 13.4 0 13.4 0 1.5 1.6 c1.8 1.7 1.9 2.4 1 4.8 l-0.6 1.6 -1.9 0 -1.9 0 0 -1 0 -1 -3.5 0 -3.5 0 0 14 0 14 1 0 1 0 0 1.9 0 1.9 -1.6 0.6 c-1.8 0.7 -8.3 0.7 -10.1 -0.1z"/>
 </g>
</svg>